<?xml version="1.0" standalone="no"?>
<!DOCTYPE svg PUBLIC "-//W3C//DTD SVG 20010904//EN"
 "http://www.w3.org/TR/2001/REC-SVG-20010904/DTD/svg10.dtd">
<svg version="1.0" xmlns="http://www.w3.org/2000/svg"
 width="406.000000pt" height="73.000000pt" viewBox="0 0 406.000000 73.000000"
 preserveAspectRatio="xMidYMid meet">

<g transform="translate(0.000000,73.000000) scale(0.100000,-0.100000)"
fill="#000000" stroke="none">
<path d="M270 515 c-7 -8 -19 -15 -26 -15 -11 0 -14 -38 -14 -210 l0 -210 165
0 165 0 0 55 0 55 -105 0 c-104 0 -105 0 -105 24 0 18 7 25 30 30 37 7 80 48
80 76 0 18 -6 20 -55 20 l-55 0 0 45 0 45 89 0 c81 0 90 2 114 25 13 14 27 37
29 50 l5 25 -152 0 c-123 0 -155 -3 -165 -15z"/>
<path d="M620 305 l0 -225 55 0 54 0 3 126 3 126 64 -107 c76 -125 97 -145
157 -145 l44 0 0 225 0 225 -55 0 -54 0 -3 -125 -3 -125 -63 104 c-74 124 -98
146 -158 146 l-44 0 0 -225z"/>
<path d="M1030 480 l0 -50 60 0 60 0 0 -175 0 -175 60 0 60 0 0 175 0 175 60
0 60 0 0 50 0 50 -180 0 -180 0 0 -50z"/>
<path d="M1420 305 l0 -225 60 0 60 0 0 175 0 175 50 0 c41 0 56 -5 75 -25 14
-13 25 -33 25 -43 0 -31 -42 -62 -83 -62 l-37 0 0 -50 c0 -48 1 -50 28 -50 23
0 32 -9 57 -58 l30 -57 58 -3 c31 -2 57 0 57 3 0 3 -16 36 -34 74 l-35 68 29
28 c32 30 54 101 44 143 -12 49 -44 90 -88 111 -36 18 -61 21 -169 21 l-127 0
0 -225z"/>
<path d="M1840 305 l0 -225 160 0 160 0 0 55 0 55 -105 0 -105 0 0 25 c0 19 5
25 20 25 48 0 100 44 100 84 0 13 -12 16 -60 16 l-60 0 0 45 0 45 91 0 c87 0
92 1 120 29 16 16 29 39 29 50 0 20 -5 21 -175 21 l-175 0 0 -225z"/>
<path d="M2220 305 l0 -225 60 0 60 0 0 128 0 127 67 -111 c72 -121 98 -144
162 -144 l41 0 0 225 0 225 -60 0 -59 0 -3 -120 -3 -120 -63 105 c-69 114 -93
135 -162 135 l-40 0 0 -225z"/>
<path d="M2797 516 c-77 -21 -127 -82 -127 -157 0 -32 0 -32 41 24 22 32 43
57 46 57 14 0 -12 -58 -44 -97 -27 -33 -33 -47 -24 -52 8 -5 32 12 69 49 32
32 72 65 90 74 33 17 33 17 23 -2 -11 -20 -33 -42 -103 -102 -21 -18 -38 -36
-38 -41 0 -16 26 -10 45 11 27 30 113 67 170 74 49 7 49 6 27 -10 -13 -10 -52
-27 -88 -39 -66 -22 -104 -48 -91 -62 4 -4 27 -1 50 6 82 25 156 36 168 24 8
-8 -9 -14 -60 -24 -98 -17 -109 -34 -48 -72 33 -21 34 -43 5 -74 l-22 -24 38
16 c67 28 107 59 113 87 3 17 14 28 30 33 51 12 102 105 58 105 -18 0 -19 4
-3 30 19 30 -17 94 -55 98 -22 3 -27 7 -22 22 4 14 -3 21 -35 34 -52 21 -68
20 -114 -3 l-38 -20 6 25 c7 28 3 28 -67 10z"/>
<path d="M3150 523 c0 -4 33 -106 72 -226 l73 -218 59 3 59 3 69 205 c37 113
71 213 74 223 5 15 -2 17 -54 17 l-60 0 -43 -136 -44 -137 -45 137 -44 136
-58 0 c-32 0 -58 -3 -58 -7z"/>
<path d="M3548 305 l-75 -226 60 3 60 3 41 122 c23 67 43 124 46 127 3 3 25
-53 49 -124 l42 -130 59 0 58 0 -75 225 -75 225 -58 0 -57 0 -75 -225z"/>
</g>
</svg>
